<svg width="594" height="136" viewBox="0 0 594 136" fill="none" xmlns="http://www.w3.org/2000/svg">
  <path d="M294.783 108.673C306.603 108.673 313.396 100.52 315.706 90.857H320.869C320.869 102.633 323.586 106.559 333.776 106.559H339.347V94.4805H332.418C329.293 94.4805 328.478 93.5746 328.478 90.1021V55.8296C328.478 39.6748 319.782 29.5591 301.576 29.5591C283.778 29.5591 274.131 40.2787 271.958 50.5453L283.914 54.9237C285.68 49.1865 289.756 41.4865 301.576 41.4865C311.494 41.4865 315.706 46.7708 315.706 55.3767V57.6414C293.832 59.6041 273.316 66.5492 273.316 87.2335C273.316 100.52 281.604 108.673 294.783 108.673ZM298.451 97.0472C290.435 97.0472 286.495 92.8197 286.495 86.0256C286.495 74.0982 299.946 69.7198 315.706 67.908V75.608C315.706 90.555 307.011 97.0472 298.451 97.0472Z" fill="currentColor" />
  <path d="M565.902 108.673C583.293 108.673 593.347 99.6138 593.347 85.4217C593.347 68.8139 578.402 63.9825 570.657 62.1708L562.641 60.51C553.267 58.5472 551.229 55.6786 551.229 50.8473C551.229 45.563 555.305 40.8826 564.272 40.8826C574.869 40.8826 578.945 48.2806 580.576 53.4139L591.852 48.5826C589.135 39.0708 581.119 29.5591 564.408 29.5591C550.413 29.5591 539.001 38.7689 539.001 52.2061C539.001 66.5492 548.647 71.3806 560.196 73.9472L568.348 75.608C577.587 77.5707 580.44 81.3452 580.44 86.6295C580.44 93.2726 575.413 97.0472 566.038 97.0472C555.033 97.0472 550.142 90.555 548.376 82.855L536.283 87.2335C539.137 101.426 551.772 108.673 565.902 108.673Z" fill="currentColor" />
  <path d="M501.373 108.673C516.59 108.673 526.78 98.8589 531.264 84.9688L519.172 80.2884C516.862 88.5923 511.835 96.4432 501.237 96.4432C490.504 96.4432 481.944 87.6864 481.944 69.1159C481.944 50.8473 490.64 41.7885 501.102 41.7885C510.476 41.7885 515.367 48.4316 517.677 55.8296L529.633 51.3002C526.237 39.5238 516.59 29.5591 501.237 29.5591C482.352 29.5591 468.63 45.714 468.63 69.1159C468.63 93.2727 481.673 108.673 501.373 108.673Z" fill="currentColor" />
  <path d="M444.789 17.7827H458.375V0.87291L444.789 0.87291V17.7827ZM445.196 106.559H458.103V31.6728H445.196V106.559Z" fill="currentColor" />
  <path d="M416.872 106.559H429.643V0.87291L416.872 0.87291V106.559Z" fill="currentColor" />
  <path d="M367.63 108.673C379.722 108.673 385.972 98.8589 389.097 89.0452H396.026C392.901 94.6315 390.048 101.275 389.912 106.559H402.004V31.6728H389.233V64.2845C389.233 75.91 388.417 96.2923 371.57 96.2923C363.146 96.2923 357.712 90.857 357.712 77.4198V31.6728H344.94V80.7413C344.94 97.3491 352.277 108.673 367.63 108.673Z" fill="currentColor" />
  <path d="M225.989 106.559H238.76V73.1924C238.76 55.2257 245.01 45.2611 259.955 45.2611C262.673 45.2611 264.982 45.563 267.156 45.865V31.3709C265.662 30.918 263.759 30.616 260.77 30.616C247.048 30.616 241.478 40.4297 238.488 53.112H231.152C234.277 47.5258 238.353 38.4669 238.353 31.6728H225.989V106.559Z" fill="currentColor" />
  <path d="M178.495 108.673C192.897 108.673 197.924 97.3491 200.505 90.4041H207.706C205.124 94.3295 201.592 101.728 201.592 106.559L213.14 106.559V0.87291L200.369 0.87291V18.2356C200.369 34.0885 203.902 41.6375 207.842 47.8277H200.369C197.652 39.2218 191.945 29.5591 178.495 29.5591C163.006 29.5591 151.186 44.5061 151.186 69.1159C151.186 93.5746 163.006 108.673 178.495 108.673ZM182.435 96.5942C171.973 96.5942 164.365 89.1962 164.365 68.9649C164.365 48.5826 171.973 41.6375 182.435 41.6375C193.304 41.6375 201.048 50.5453 201.048 68.9649C201.048 87.3845 193.304 96.5942 182.435 96.5942Z" fill="currentColor" />
  <path d="M135.807 31.6728L124.394 70.4747C122.22 77.8727 121.677 83.6099 121.541 91.4609H115.835C115.699 83.9119 115.155 76.3629 112.438 68.9649L98.3079 31.6728H84.042L113.797 105.804L110.4 116.373C108.498 122.11 105.78 123.318 101.161 123.318H87.5745V136H101.569C113.389 136 118.416 131.471 122.764 117.127L149.257 31.6728H135.807Z" fill="currentColor" />
  <path d="M62.6634 0.142853H75.8955V106H62.6634V68.7456C62.6634 65.5378 64.1044 62.4997 66.5886 60.4703L62.8423 55.9372C58.8192 58.252 54.2591 59.4703 49.6176 59.4703H38.3702H25.4937C21.9807 59.4703 18.5828 58.2176 15.9104 55.9372L10.1641 60.4703C12.6483 62.4997 14.0893 65.5378 14.0893 68.7456V106H0.857178V0.142853H14.0893V36.9146C14.0893 39.3852 12.8602 41.694 10.8105 43.0735L16.5568 47.6066C20.5799 45.2918 25.14 44.0735 29.7815 44.0735H38.3702H49.6176C54.2591 44.0735 58.8192 45.2918 62.8423 47.6066L66.5886 43.0735C64.1044 41.044 62.6634 38.006 62.6634 34.7982V0.142853Z" fill="currentColor" />
</svg>
