<svg width="688" height="75" viewBox="0 0 688 75" fill="none" xmlns="http://www.w3.org/2000/svg">
  <path d="M280.511 59.4484C286.999 59.4484 290.728 54.9523 291.996 49.6236H294.829C294.829 56.118 296.321 58.2827 301.914 58.2827H304.971V51.6219H301.168C299.453 51.6219 299.005 51.1223 299.005 49.2073V30.307C299.005 21.3981 294.233 15.8196 284.24 15.8196C274.471 15.8196 269.177 21.7311 267.983 27.3929L274.546 29.8075C275.515 26.6435 277.752 22.3972 284.24 22.3972C289.684 22.3972 291.996 25.3114 291.996 30.0572V31.3062C279.989 32.3886 268.729 36.2186 268.729 47.6253C268.729 54.9523 273.278 59.4484 280.511 59.4484ZM282.525 53.0373C278.125 53.0373 275.963 50.706 275.963 46.9592C275.963 40.3816 283.345 37.967 291.996 36.9679V41.2142C291.996 49.4571 287.223 53.0373 282.525 53.0373Z" fill="currentColor" />
  <path d="M190.204 59.4484C196.692 59.4484 200.421 54.9523 201.689 49.6236H204.522C204.522 56.118 206.014 58.2827 211.607 58.2827H214.664V51.6219H210.861C209.146 51.6219 208.698 51.1223 208.698 49.2073V30.307C208.698 21.3981 203.926 15.8196 193.933 15.8196C184.164 15.8196 178.869 21.7311 177.676 27.3929L184.239 29.8075C185.208 26.6435 187.445 22.3972 193.933 22.3972C199.377 22.3972 201.689 25.3114 201.689 30.0572V31.3062C189.682 32.3886 178.422 36.2186 178.422 47.6253C178.422 54.9523 182.971 59.4484 190.204 59.4484ZM192.218 53.0373C187.818 53.0373 185.655 50.706 185.655 46.9592C185.655 40.3816 193.038 37.967 201.689 36.9679V41.2142C201.689 49.4571 196.916 53.0373 192.218 53.0373Z" fill="currentColor" />
  <path d="M309.721 58.2827H316.73V40.4649C316.73 34.6366 316.879 22.647 326.574 22.647C331.346 22.647 334.404 25.6444 334.404 33.0546V58.2827H341.414V31.3062C341.414 22.1474 337.536 15.8196 328.513 15.8196C321.503 15.8196 317.774 22.2307 316.656 26.5603H312.853C314.717 23.3964 316.432 19.4831 316.432 16.9853H309.721V58.2827Z" fill="currentColor" />
  <path d="M239.307 51.5386V58.2828H230.21C224.095 58.2828 220.888 54.9523 220.888 48.1249V23.4796H212.461V16.9853H220.888V4.07982H227.898V16.9853H237.674V23.4796H227.898V47.4588C227.898 50.2897 229.016 51.5386 231.552 51.5386H239.307Z" fill="currentColor" />
  <path d="M264.349 51.5386V58.2828H255.251C249.136 58.2828 245.93 54.9523 245.93 48.1249V23.4796H237.503V16.9853H245.93V4.07982H252.939V16.9853H262.715V23.4796H252.939V47.4588C252.939 50.2897 254.058 51.5386 256.593 51.5386H264.349Z" fill="currentColor" />
  <path d="M141.537 58.2827H148.547V40.4649C148.547 34.6366 148.696 22.647 158.39 22.647C163.163 22.647 166.22 25.6444 166.22 33.0546V58.2827H173.23V31.3062C173.23 22.1474 169.353 15.8196 160.329 15.8196C153.319 15.8196 149.591 22.2307 148.472 26.5603H144.669C146.608 23.3131 148.547 19.8161 148.547 11.2402V0H141.537V58.2827Z" fill="currentColor" />
  <path d="M103.312 58.2827H110.322V40.4649C110.322 34.6366 110.471 22.647 120.166 22.647C124.938 22.647 127.996 25.6444 127.996 33.0546V58.2827H135.005V31.3062C135.005 22.1474 131.128 15.8196 122.104 15.8196C115.095 15.8196 111.366 22.2307 110.247 26.5603H106.444C108.309 23.3964 110.024 19.4831 110.024 16.9853H103.312V58.2827Z" fill="currentColor" />
  <path d="M74.1031 59.4484C80.5908 59.4484 84.3195 54.9523 85.5872 49.6236H88.4209C88.4209 56.118 89.9124 58.2827 95.5053 58.2827H98.5627V51.6219H94.7596C93.0444 51.6219 92.597 51.1223 92.597 49.2073V30.307C92.597 21.3981 87.8243 15.8196 77.8317 15.8196C68.0627 15.8196 62.7681 21.7311 61.5749 27.3929L68.1373 29.8075C69.1067 26.6435 71.3439 22.3972 77.8317 22.3972C83.2754 22.3972 85.5872 25.3114 85.5872 30.0572V31.3062C73.5811 32.3886 62.3207 36.2186 62.3207 47.6253C62.3207 54.9523 66.8696 59.4484 74.1031 59.4484ZM76.1165 53.0373C71.7168 53.0373 69.5542 50.706 69.5542 46.9592C69.5542 40.3816 76.9368 37.967 85.5872 36.9679V41.2142C85.5872 49.4571 80.8146 53.0373 76.1165 53.0373Z" fill="currentColor" />
  <path d="M0 58.2827H7.45722V28.059C7.45722 19.2333 5.81663 12.4059 3.80318 7.16045L6.93521 5.82827L25.28 58.2827H30.5746L48.6956 5.82827L51.8277 7.16045C49.8888 12.4059 48.1736 19.2333 48.1736 28.059V58.2827H55.6308V0H43.401L32.066 33.3877C30.2017 38.7996 29.7543 42.4631 29.6797 48.791H26.4731C26.3985 42.5464 25.9511 38.5499 24.1614 33.3877L12.5281 0H0V58.2827Z" fill="currentColor" />
  <path d="M524.128 59.851C530.616 59.851 534.344 55.3549 535.612 50.0262H538.446C538.446 56.5205 539.937 58.6853 545.53 58.6853H548.588V52.0244H544.784C543.069 52.0244 542.622 51.5249 542.622 49.6099V30.7096C542.622 21.8007 537.849 16.2222 527.857 16.2222C518.088 16.2222 512.793 22.1337 511.6 27.7955L518.162 30.21C519.132 27.0461 521.369 22.7998 527.857 22.7998C533.3 22.7998 535.612 25.714 535.612 30.4598V31.7088C523.606 32.7911 512.346 36.6211 512.346 48.0279C512.346 55.3549 516.895 59.851 524.128 59.851ZM526.141 53.4399C521.742 53.4399 519.579 51.1086 519.579 47.3618C519.579 40.7842 526.962 38.3696 535.612 37.3705V41.6168C535.612 49.8596 530.839 53.4399 526.141 53.4399Z" fill="currentColor" />
  <path d="M672.936 59.851C682.482 59.851 688 54.8553 688 47.0288C688 37.8701 679.797 35.2057 675.546 34.2066L671.147 33.2907C666.001 32.2083 664.883 30.6263 664.883 27.962C664.883 25.0479 667.12 22.4668 672.042 22.4668C677.858 22.4668 680.095 26.5466 680.99 29.3774L687.18 26.7131C685.688 21.4676 681.289 16.2222 672.116 16.2222C664.435 16.2222 658.171 21.3011 658.171 28.7113C658.171 36.6211 663.466 39.2855 669.804 40.7009L674.279 41.6168C679.35 42.6992 680.916 44.7807 680.916 47.6949C680.916 51.3583 678.157 53.4399 673.011 53.4399C666.971 53.4399 664.286 49.8596 663.317 45.6133L656.68 48.0279C658.246 55.8544 665.181 59.851 672.936 59.851Z" fill="currentColor" />
  <path d="M637.519 59.851C645.871 59.851 651.464 54.439 653.925 46.779L647.288 44.1979C646.02 48.7772 643.261 53.1068 637.444 53.1068C631.553 53.1068 626.855 48.2777 626.855 38.0366C626.855 27.962 631.628 22.9663 637.37 22.9663C642.515 22.9663 645.2 26.6298 646.467 30.7096L653.03 28.2118C651.165 21.7174 645.871 16.2222 637.444 16.2222C627.079 16.2222 619.547 25.1311 619.547 38.0366C619.547 51.3584 626.706 59.851 637.519 59.851Z" fill="currentColor" />
  <path d="M606.461 9.72784H613.918V0.402605H606.461V9.72784ZM606.685 58.6853H613.769V17.3879H606.685V58.6853Z" fill="currentColor" />
  <path d="M591.139 58.6853H598.148V0.402605H591.139V58.6853Z" fill="currentColor" />
  <path d="M564.111 59.851C570.748 59.851 574.179 54.439 575.894 49.027H579.697C577.982 52.1077 576.416 55.7712 576.341 58.6853H582.978V17.3878H575.968V35.3722C575.968 41.7833 575.521 53.0236 566.274 53.0236C561.651 53.0236 558.668 50.0262 558.668 42.616V17.3878H551.658V44.4477C551.658 53.6064 555.685 59.851 564.111 59.851Z" fill="currentColor" />
  <path d="M486.369 58.6853H493.379V40.2847C493.379 30.3766 496.809 24.8814 505.012 24.8814C506.504 24.8814 507.771 25.0479 508.965 25.2144V17.2214C508.144 16.9716 507.1 16.805 505.46 16.805C497.928 16.805 494.87 22.217 493.23 29.2109H489.203C490.918 26.1303 493.155 21.1346 493.155 17.3879H486.369V58.6853Z" fill="currentColor" />
  <path d="M460.301 59.851C468.206 59.851 470.965 53.6064 472.382 49.7764H476.334C474.917 51.9412 472.978 56.021 472.978 58.6853H479.317V0.402605H472.307V9.97762C472.307 18.72 474.246 22.8831 476.409 26.2968H472.307C470.816 21.5509 467.684 16.2222 460.301 16.2222C451.8 16.2222 445.312 24.465 445.312 38.0366C445.312 51.5249 451.8 59.851 460.301 59.851ZM462.464 53.1901C456.722 53.1901 452.546 49.1103 452.546 37.9533C452.546 26.7131 456.722 22.8831 462.464 22.8831C468.43 22.8831 472.68 27.7955 472.68 37.9533C472.68 48.1112 468.43 53.1901 462.464 53.1901Z" fill="currentColor" />
  <path d="M436.871 17.3878L430.607 38.7859C429.414 42.8657 429.116 46.0296 429.041 50.3592H425.909C425.834 46.1962 425.536 42.0331 424.045 37.9533L416.289 17.3878H408.459L424.79 58.269L422.926 64.0973C421.882 67.2612 420.391 67.9273 417.855 67.9273H410.398V74.9212H418.079C424.567 74.9212 427.326 72.4234 429.712 64.5136L444.254 17.3878H436.871Z" fill="currentColor" />
  <path d="M396.725 0H403.988V58.3771H396.725V37.8324C396.725 36.0634 397.516 34.388 398.879 33.2688L396.823 30.7689C394.615 32.0455 392.112 32.7173 389.565 32.7173H376.324C374.396 32.7173 372.531 32.0265 371.064 30.7689L367.91 33.2688C369.273 34.388 370.064 36.0634 370.064 37.8324V58.3771H362.802V0H370.064V20.2785C370.064 21.641 369.39 22.9142 368.265 23.675L371.419 26.1749C373.627 24.8983 376.13 24.2265 378.677 24.2265H389.565C392.112 24.2265 394.615 24.8983 396.823 26.1749L398.879 23.675C397.516 22.5558 396.725 20.8804 396.725 19.1114V0Z" fill="currentColor" />
</svg>
