<svg width="623" height="109" viewBox="0 0 623 109" fill="none" xmlns="http://www.w3.org/2000/svg">
  <path d="M511.645 108.085C523.465 108.085 530.258 99.9325 532.568 90.2698H537.731C537.731 102.046 540.448 105.972 550.638 105.972H556.208V93.8933H549.279C546.154 93.8933 545.339 92.9875 545.339 89.5149V55.2425C545.339 39.0876 536.644 28.9719 518.438 28.9719C500.639 28.9719 490.993 39.6915 488.819 49.9581L500.775 54.3366C502.542 48.5993 506.618 40.8993 518.438 40.8993C528.356 40.8993 532.568 46.1836 532.568 54.7895V57.0542C510.693 59.0169 490.178 65.962 490.178 86.6463C490.178 99.9325 498.466 108.085 511.645 108.085ZM515.313 96.46C507.297 96.46 503.357 92.2325 503.357 85.4384C503.357 73.511 516.807 69.1326 532.568 67.3208V75.0208C532.568 89.9679 523.872 96.46 515.313 96.46Z" fill="currentColor" />
  <path d="M347.111 108.085C358.931 108.085 365.725 99.9325 368.034 90.2698H373.197C373.197 102.046 375.915 105.972 386.104 105.972H391.675V93.8933H384.746C381.621 93.8933 380.806 92.9875 380.806 89.5149V55.2425C380.806 39.0876 372.11 28.9719 353.904 28.9719C336.106 28.9719 326.459 39.6915 324.286 49.9581L336.242 54.3366C338.008 48.5993 342.084 40.8993 353.904 40.8993C363.823 40.8993 368.034 46.1836 368.034 54.7895V57.0542C346.16 59.0169 325.644 65.962 325.644 86.6463C325.644 99.9325 333.932 108.085 347.111 108.085ZM350.779 96.46C342.763 96.46 338.823 92.2325 338.823 85.4384C338.823 73.511 352.274 69.1326 368.034 67.3208V75.0208C368.034 89.9679 359.339 96.46 350.779 96.46Z" fill="currentColor" />
  <path d="M564.862 105.972H577.633V73.662C577.633 63.0934 577.905 41.3523 595.567 41.3523C604.262 41.3523 609.833 46.7876 609.833 60.2248V105.972H622.604V57.0542C622.604 40.4464 615.539 28.9719 599.1 28.9719C586.328 28.9719 579.535 40.5974 577.497 48.4483H570.568C573.965 42.7111 577.089 35.615 577.089 31.0856H564.862V105.972Z" fill="currentColor" />
  <path d="M436.573 93.7424V105.972H419.998C408.857 105.972 403.015 99.9326 403.015 87.5522V42.8621H387.662V31.0857L403.015 31.0857V7.68378L415.786 7.68378V31.0857L433.597 31.0857V42.8621L415.786 42.8621V86.3444C415.786 91.4777 417.824 93.7424 422.443 93.7424H436.573Z" fill="currentColor" />
  <path d="M482.197 93.7424V105.972H465.622C454.481 105.972 448.638 99.9326 448.638 87.5522V42.8621H433.286V31.0857L448.638 31.0857V7.68378L461.41 7.68378V31.0857L479.221 31.0857V42.8621L461.41 42.8621V86.3444C461.41 91.4777 463.448 93.7424 468.067 93.7424H482.197Z" fill="currentColor" />
  <path d="M258.443 105.972H271.214V73.662C271.214 63.0934 271.486 41.3523 289.148 41.3523C297.843 41.3523 303.414 46.7875 303.414 60.2248V105.972H316.185V57.0542C316.185 40.4464 309.12 28.9719 292.681 28.9719C279.909 28.9719 273.116 40.5974 271.078 48.4483H264.149C267.681 42.5601 271.214 36.219 271.214 20.668V0.285706L258.443 0.285706V105.972Z" fill="currentColor" />
  <path d="M188.799 105.972H201.571V73.662C201.571 63.0934 201.842 41.3523 219.505 41.3523C228.2 41.3523 233.771 46.7876 233.771 60.2248V105.972H246.542V57.0542C246.542 40.4464 239.477 28.9719 223.037 28.9719C210.266 28.9719 203.473 40.5974 201.435 48.4483H194.506C197.902 42.7111 201.027 35.615 201.027 31.0856H188.799V105.972Z" fill="currentColor" />
  <path d="M135.582 108.085C147.403 108.085 154.196 99.9325 156.506 90.2698H161.668C161.668 102.046 164.386 105.972 174.576 105.972H180.146V93.8933H173.217C170.092 93.8933 169.277 92.9875 169.277 89.5149V55.2425C169.277 39.0876 160.581 28.9719 142.376 28.9719C124.577 28.9719 114.931 39.6915 112.757 49.9581L124.713 54.3366C126.479 48.5993 130.555 40.8993 142.376 40.8993C152.294 40.8993 156.506 46.1836 156.506 54.7895V57.0542C134.631 59.0169 114.115 65.962 114.115 86.6463C114.115 99.9325 122.403 108.085 135.582 108.085ZM139.251 96.46C131.235 96.46 127.294 92.2325 127.294 85.4384C127.294 73.511 140.745 69.1326 156.506 67.3208V75.0208C156.506 89.9679 147.81 96.46 139.251 96.46Z" fill="currentColor" />
  <path d="M0.571411 105.972H14.158L14.158 51.166C14.158 35.1621 11.1689 22.7817 7.50055 13.27L13.2069 10.8543L46.6298 105.972H56.2763L89.2916 10.8543L94.9979 13.27C91.4654 22.7817 88.3405 35.1621 88.3405 51.166L88.3405 105.972H101.927L101.927 0.285706L79.6451 0.285706L58.9936 60.8287C55.5969 70.6424 54.7817 77.2855 54.6459 88.76H48.8037C48.6678 77.4365 47.8526 70.1895 44.5918 60.8287L23.3968 0.285706L0.571411 0.285706L0.571411 105.972Z" fill="currentColor" />
</svg>
